<svg enable-background="new 0 0 100 100" height="512" viewBox="0 0 100 100" width="512" xmlns="http://www.w3.org/2000/svg"><path d="m67.5916519 46.9378624-.7737198-11.2832031c-.0909882-1.3260689-1.146553-2.3816338-2.4725952-2.4725914l-11.2831993-.7737198c-.7672157-.0526543-1.5197601.2293091-2.0635567.7731094l-40.3938026 40.3937988c-.8282719.82827-1.0226355 2.1055069-.4705811 3.1385269 3.0536985 5.7144089 7.4377232 10.0984344 13.1519585 13.1520767 1.0330791.5519943 2.3103142.3576355 3.138586-.4706345l40.3937988-40.3938065c.5438023-.5437964.8257619-1.2963408.7731114-2.0635565z" fill="#feda6f"/><path d="m89.8214264 14.5912457-4.412674-4.4126711c-.4753647-.4753647-1.2460175-.4754524-1.7214432-.0000296l-1.0539398 1.053935c-.2992859.2992907-.4094086.7155266-.3317795 1.1015415l-20.6725311 20.6725283 5.3643951 5.3643913 20.6725235-20.6725273c.3859863.0775948.8022232-.032526 1.1015167-.3318157l1.0539322-1.053936c.4754258-.4754219.4753648-1.2460518.0000001-1.7214164z" fill="#344d5b"/><path d="m57.418541 47.0411873-.8964233-.8964844-32.4000245 32.4000206.8955688 11.5836182c.0317383-.0058594.0628052-.0148926.0942993-.0218506l.8030396-11.3056641z" fill="#f4c756" opacity=".5"/><path d="m53.8552475 43.4779549-.8964844-.8964844-31.7596435 31.5034141-11.3056641.8031006c-.006958.0316162-.0159912.0626221-.0218506.0943604l11.5836182.8955078z" fill="#f4c756" opacity=".5"/><ellipse cx="51.546" cy="74.409" fill="#de594e" rx="8.822" ry="8.822" transform="matrix(.987 -.16 .16 .987 -11.253 9.218)"/><path d="m60.295948 75.5378494c-.5553741 4.3383789-4.2614746 7.6920166-8.7493629 7.6920166-4.8723907 0-8.82201-3.9496078-8.82201-8.8198624 0-1.4525299.3503189-2.8238983.9740524-4.0329132-.0469894.3674088-.0704842.7433472-.0704842 1.1235809 0 4.8723907 3.9496078 8.821991 8.8219986 8.821991 3.4177246.0000001 6.3804627-1.9438247 7.8458061-4.7848129z" fill="#cd5248"/><g fill="#ededed"><path d="m51.2902527 83.2277222c-.2264214-.0085373-.4528465-.0234909-.6750069-.0469818-4.3191414-4.9984283-4.336235-12.5174103-.0534019-17.5371933.2221603-.0256348.4464455-.0427246.6728706-.0512772-4.5562591 4.9557037-4.5370293 12.7032623.0555382 17.6354523z"/><path d="m49.1413612 82.896637c.0234909-.0042648.0512619-.0042648.0790329.0021362-.1431122-.0491257-.2883797-.1025238-.4336319-.1580658-.1281586-.0470047-.2306862-.2007904-.2285614-.3375092.0042763-.1281586.0961266-.1901093.2093468-.1580658-.1409912-.0576782-.2819633-.1174774-.4208145-.1794205-.1196213-.0534058-.2093315-.1965332-.2093315-.326828v-.0213547c.0106773-.1260376.1068039-.1837158.2178841-.1473923-.1367111-.0640869-.2734261-.1303101-.4101372-.1986542-.1217575-.0619507-.2071915-.2242966-.1879768-.3588715.0192337-.1238785.1174965-.175148.2264252-.132431-.1324348-.0704803-.2670097-.145256-.3973083-.2200089-.1174812-.0683594-.1943779-.2328415-.1666069-.3652802.0234947-.1238937.1260223-.1708832.2328262-.1217575-.1302986-.0768967-.2584572-.1580658-.384491-.2392349-.115345-.0747604-.1794243-.243515-.1473923-.3738174.0320473-.1217575.1367149-.1623383.2392426-.1089401-.1238976-.0832977-.2477798-.1687469-.3695374-.2584534-.1110802-.0790405-.1666222-.2499313-.1260338-.3780899.0384445-.1196213.1452484-.1537933.243515-.0961304-.1174812-.0897141-.2371025-.1815643-.3545837-.2776871-.1046791-.083313-.1516647-.2563324-.1046791-.3823547.0448608-.1174927.1538048-.1473846.2499313-.0833054-.1153564-.0961304-.2285614-.1943893-.3396416-.2947845-.1003914-.0897064-.1388397-.2648697-.083313-.3887634.0491409-.113205.1602058-.1367111.2520714-.0683594-.1089439-.1003876-.2178841-.2050552-.324688-.3118591-.0939903-.0939865-.1217575-.271286-.0619431-.3909073.0576668-.1110764.1687469-.1281662.256321-.0555344-.1025276-.1068039-.2050552-.2157516-.3054581-.3289566-.0918503-.098259-.1089439-.2776947-.0427246-.3930435.0619545-.1068039.1730194-.1196213.2584686-.0405807-.0982628-.113205-.1943779-.2285614-.2883644-.3439102-.0854492-.1046677-.0939865-.2841034-.0213699-.3951645.0683594-.1046829.1794395-.111084.2606087-.027771-.0918503-.1174927-.181572-.237114-.271286-.3588715-.0790329-.1089325-.0790329-.2883682.00214-.3951721.0726204-.1003876.1837006-.1003876.2605934-.0149536-.085434-.1217575-.1687431-.2456436-.2520561-.3716736-.0726166-.113205-.0640793-.2905045.0213699-.3951721.0790329-.0961227.1901016-.0897217.2627335 0-.0790329-.12603-.1559296-.2541962-.2328377-.3866272-.0662193-.1153564-.0469894-.2926407.0427246-.3930435.0833092-.0918503.1943893-.0790329.2606087.0149536-.0704956-.1303024-.1409912-.2627335-.2093468-.3973083-.0619392-.1196213-.0341721-.2969208.0619545-.3930435.087574-.0875702.1986542-.0683594.2605972.0299072-.0662193-.1345749-.1281586-.271286-.1901169-.4101257-.0534019-.1217575-.0170784-.2990494.083313-.3887634.0939865-.0811768.2029305-.0576782.2584686.0427246-.0576782-.1367111-.1132164-.2777023-.1666183-.4186783-.0491257-.12603 0-.299057.1046638-.384491.0961266-.0769119.2050667-.0491409.2541924.055542-.0491257-.1409912-.0982513-.2841034-.1431122-.4272156-.0405846-.1281738.0149536-.3011932.1238976-.3802261.1025276-.0726318.2071915-.0363159.2541924.070488-.0427246-.1452484-.0833092-.2905121-.1217575-.4378891-.0341721-.1303101.0320473-.299057.1452522-.3716888.1068039-.0683594.2093315-.0256348.2499161.083313-.0341721-.1473923-.0662155-.2947845-.0961113-.444313-.027771-.132431.0469856-.2990417.1644669-.3652573.1110802-.0619583.2114716-.0170975.2456551.0961227-.027771-.1495285-.0512619-.299057-.0726318-.4507217-.0192184-.1345749.0662193-.2969055.1879768-.35672.1132164-.0576782.2114677-.0042801.2370987.1089401-.0170784-.1516647-.032032-.3011932-.0448494-.4549866-.0106773-.1345749.083313-.2947769.2093315-.348175.115345-.0512695.2114716.0064087.2307014.1217575-.0085526-.1516724-.0149536-.3054581-.0192299-.4592667-.00214-.1153412.0704918-.2434998.1730194-.3097229.0192337-.012825.0384483-.0213623.0576782-.0299072.029911-.0106735.0576782-.0149536.083313-.0149536.0747566.0064011.1302948.0640793.140976.1495285 0-.0640945 0-.1281738.0021362-.1922531.1516647-.0469818.3054581-.0897064.4613876-.1260223-.0021248.0832977-.0021248.1666107-.0042648.2477798-.0021362.1345749-.1025391.2755508-.2285614.3225555-.1153412.0427246-.2114677-.0170975-.2242851-.1345749 0 .1516647.0042648.3033142.0106773.4528427.0064011.1324387-.0854492.2798309-.2072067.3310928-.113205.0469971-.2114677-.0064011-.2328224-.1217575.0106773.1516647.0234909.3011932.0384445.4485855.0149574.132431-.0683556.2819595-.187973.3396301-.1089439.0555344-.2093315.0064087-.2371025-.1068039.0170937.1495209.0405846.2969131.0640793.4443054.0213547.1302948-.0534019.2841034-.1687431.3460388-.1068039.0598221-.2093468.0170975-.2435188-.0939865.027771.1473923.0576782.2947845.0897141.4378967.0277672.1281738-.0384483.2862396-.1495285.3545914-.1025276.0640793-.2071953.027771-.2477798-.0811691.0341721.1452484.0726318.2905045.113205.4314804.0363235.12603-.0213547.2862396-.1281586.3610001-.1003914.070488-.2071953.0384598-.2541962-.0683441.0448647.1431122.0897141.2840881.1388512.4250717.0405884.1238861-.0064125.2840881-.1089401.3652649-.0961266.0747681-.2050705.0491409-.2563324-.0555267.0512619.140976.1046638.2798233.1602058.4165268.0491257.1196136.0106773.2840958-.087574.369545-.0918503.0790329-.2029305.0598068-.2606087-.0405807.0598183.1366959.1196213.2712708.1837006.4058456.0534019.1174774.0235062.2819595-.0683441.3738098-.0875854.083313-.1986656.0683594-.2606087-.027771.0640793.1345749.1324348.2648849.2029305.3951874.0619431.113205.0384483.2798233-.0491257.375946-.0811729.0875778-.1943893.0811768-.2606087-.0128098.0726318.1281586.1473923.2563171.2221489.3823471.0683556.111084.0555382.2776871-.027771.3780899-.0768967.0918503-.1901016.0897141-.2627335 0 .0811729.1260223.1623459.2499161.243515.3695374.0747604.1089478.0704956.2755508-.0085373.3802185-.0726318.0961227-.183712.1004028-.2606087.0149536.0854492.1217575.1730194.2392426.2627335.3567352.0790329.1025238.0833092.2712708.0106888.3780746-.0662155.1004028-.1772957.111084-.2606087.0299072.0939903.1153412.1858406.2285614.2819672.3417664.0833092.0982666.0982628.2648849.0320435.3780899-.0640907.1025314-.1730194.1196213-.2584686.0427246.0982628.111084.1965141.2200089.296917.3246918.0897141.0961075.113205.2627335.0512657.3780746-.055542.1068039-.1644821.1281738-.2541962.055542.1025276.1068039.2071953.2093277.3139992.3097305.0939865.0918503.1260338.2563324.0726318.3738174-.0512657.1110764-.1602058.1388474-.2541924.070488.1110802.1003952.2200203.1986542.3332253.2947845.0982666.0832977.1388512.2477798.0897141.3695374-.0448494.113205-.1516533.1452484-.2477798.0833054.1153412.0939941.2306976.1858444.3460426.2755508.1046638.0811768.1537895.2413788.1110802.3652725-.0384483.1153488-.1431274.1537933-.243515.0982513.1196175.0875931.241375.173027.3631363.2584763.1068039.0726166.1644669.2328186.1302948.3588562-.0320435.117485-.1345711.1623459-.2370987.1089401.1238823.083313.247776.1623459.3738136.2413788.113205.0683594.1794205.2242889.1516495.3524475-.025631.1196213-.1260185.1687546-.2306862.1238937.1281624.0747681.2584572.1473923.3887558.2200241.1153564.0619431.1901131.2157288.1708984.3460388-.0192337.1217651-.1174965.1751633-.2264252.1345749.1345749.0683594.2670097.1367035.4015846.200798.1196175.057663.2029152.2071915.1922379.3374863-.0128174.1238937-.1068039.1837158-.2178841.1473923.1367111.0619507.2755623.1217575.4122734.1794357.1238823.0512619.2157326.1965179.2114716.3310852-.0042763.1217575-.0961266.1879807-.2093468.1580734.1409912.0555344.2841034.1089401.4250908.1580658.1260223.0448608.2264252.1858368.2306862.3204117.00214.1238937-.0832939.1943893-.1986504.1687546.0704918.0234985.1388474.0469894.209343.070488-.1367114-.0298993-.2712863-.0662228-.4037212-.1046673z"/><path d="m52.2258568 83.2042313c.0298958-.0448532.0811729-.0726166.1452522-.0747604-.1388512-.0149536-.2776871-.0299072-.4186783-.0491257-.1260185-.0149536-.2370987-.1324463-.2477798-.2584686-.0085526-.1153412.0726204-.1922531.1815643-.187973-.1367149-.0192337-.2755508-.0427246-.414402-.0683594-.1217575-.0234909-.2264214-.1452484-.2285614-.2691498-.0021362-.1153412.083313-.187973.1922531-.1772842-.1367111-.027771-.271286-.0576782-.4079971-.0897217-.1196213-.0299072-.2157326-.1559296-.2114716-.2798233.0064163-.1153488.0961266-.1815643.2029305-.1666107-.1345749-.0341873-.2670097-.0704956-.3994446-.1089401-.1196213-.0363083-.2071953-.1666183-.1943779-.2883759.0106773-.113205.1046677-.175148.2093315-.1559296-.1302986-.0405884-.2606087-.083313-.3909073-.1303024-.1025276-.0363083-.1794205-.1473846-.1794205-.2563324 0-.0128174.0021248-.0256271.004261-.0384445.0170937-.1132202.1132202-.1687469.2178841-.145256-.1281586-.0469971-.2541924-.0961227-.3823509-.1495285-.1132202-.0448608-.1858368-.1836929-.1580811-.3033142.0235062-.111084.1238937-.1623459.2264366-.1303024-.1260338-.0533981-.2499313-.1110764-.3738136-.1687546-.1089439-.0512619-.1730347-.1922379-.1409874-.3097305.0320435-.1089325.1324348-.1559296.2328377-.1196213-.1196213-.0598068-.2413788-.1217575-.3610001-.1879807-.1068039-.057663-.1644821-.2007904-.1238937-.3161316.0363083-.1068039.140976-.1473923.2392387-.1046677-.1174812-.0662155-.2349625-.1345749-.3503189-.2072067-.1046677-.0619431-.1537933-.2071915-.1068039-.3204117.0427246-.1046677.1495285-.1388321.2456551-.0939865-.115345-.0704803-.2285652-.1452484-.3396454-.2221451-.1003876-.0683594-.1409721-.2157516-.0897102-.3246918.0491257-.1025238.1580696-.132431.2499161-.0811539-.1089401-.0769119-.2178688-.1580811-.3268127-.2392578-.0961266-.0726166-.12817-.2242813-.0704918-.328949.0534019-.1003876.1644821-.1217575.2541924-.0662155-.1068039-.083313-.2114677-.1687469-.3139954-.2584763-.0918655-.076889-.1153564-.2285461-.0534019-.3310852.059803-.0961304.1708832-.113205.2563171-.0534058-.1003876-.0875702-.2007904-.1794205-.2990417-.2712708-.0875893-.083313-.1046677-.2349777-.0341873-.3353653.0619545-.0918503.1751633-.1025391.2584724-.0384445-.0961266-.0939941-.1922531-.1901169-.2841034-.2883835-.085434-.0875702-.0918503-.2392349-.0192184-.3353653.0683594-.0875702.1815643-.0939865.2605972-.0234909-.0897102-.1003876-.1794243-.2007904-.2691498-.3033218-.0790329-.0918503-.0790329-.243515 0-.3353653.0747719-.0854492.1858406-.0854492.2627487-.0106735-.0854492-.1046829-.1708984-.2093506-.2541962-.3182907-.0726318-.0939713-.0640907-.2477798.0192184-.3332291.0768967-.0811539.1879768-.0747528.2606087.0021439-.0790329-.1089478-.1580658-.2178726-.2349777-.3289566-.0683556-.1004028-.0534019-.2520523.0341873-.3353653.0833092-.0768967.1943779-.0640793.2627335.0170975-.0747604-.111084-.1473923-.2264252-.2200089-.3417816-.0619545-.1025314-.0384636-.2541962.0534019-.3310928.085434-.0726166.1965141-.055542.2605934.0299072-.0683556-.1153412-.1345749-.2349625-.1986542-.3545914-.0598145-.1068039-.027771-.2563171.0704956-.3289566.087574-.0683517.1986542-.042717.2563171.0448685-.0619392-.1196213-.1217422-.2413788-.1794205-.3652802-.0512657-.1089401-.0128174-.2563248.0875702-.3246841.0939903-.0640793.2007942-.0341721.2563324.0576782-.0555382-.1217575-.1089401-.2477798-.1602058-.3738174-.0469856-.113205.00214-.2584686.1046677-.3204117.0961266-.0597992.2029305-.0234909.2520561.0704956-.0491257-.12603-.0961151-.2541885-.1388397-.3823624-.0405846-.1153412.0149536-.258461.1217575-.3161392.1003914-.0533981.2050552-.0128098.2477798.0854492-.0405846-.1302948-.0811691-.2606049-.1174812-.3930435-.0341835-.1174774.0299072-.2584534.140976-.3097305.1025391-.0469894.2029305 0 .243515.098259-.0363083-.1302948-.0683556-.2627335-.0961266-.3973007-.0277672-.1196213.0448647-.2584763.1580696-.3033218.1046791-.0448608.2029305.0085373.237114.1110687-.027771-.1345749-.0512657-.2691498-.0747719-.4058456-.0192146-.1196213.0619545-.2541962.1772995-.2947845.1068039-.0384445.2029305.0192184.2307014.1238861-.0192337-.1345749-.0363235-.2712784-.0491409-.4101257-.0128136-.1217575.0747719-.2520523.1943893-.2862244.1089439-.0341873.2007942.029892.2221489.1345596-.0106773-.1345596-.0192184-.2734146-.025631-.412262-.0042763-.1238861.0918503-.2499161.2114677-.2776871.1132202-.027771.2007942.0405884.2157478.1473923-.00214-.1367188-.00214-.2755508 0-.4165421.0021362-.1238785.1068039-.245636.2306976-.2691498.113205-.0192108.1986542.0534058.2071953.1602097.0042763-.1366959.0128136-.2776871.0235062-.4165268.0106773-.12603.1238823-.2413788.2477798-.2584686.1153412-.0149536.1965141.0619431.1986542.1708832.0064125-.0790329.0170898-.1580658.0277672-.2370987.1473923.0085373.2926445.0234909.4378967.0405807-.0128174.0790405-.0213585.1580734-.0320358.2349701-.0128136.1217575-.1196175.2264175-.2413788.2413712-.1132164.0128174-.1965256-.0619354-.1986504-.1708832-.0128174.138855-.02351.2755508-.029911.412262-.0064125.1196213-.1068039.2307053-.2264214.2520599-.1110802.0170898-.1986542-.0534058-.2072067-.1602097-.0042648.1367111-.0064011.2734222-.0042648.410141 0 .1196136-.0918503.2349625-.209343.2605896-.1089287.0234985-.2007942-.0405807-.2157326-.1473846.004261.1367111.0106773.2734222.0213547.4079971.0064011.1196213-.0768967.2392349-.1922531.2712708-.1068039.027771-.2029152-.0320358-.2242851-.1367111.0128174.1367111.027771.271286.0448647.4037247.0149536.1196136-.0619545.2413712-.1751633.2798233-.1046638.0341797-.2029266-.0213547-.2328377-.1238861.0213699.1345596.0448647.2670135.0683556.3994446.0234947.1153488-.0469856.2413788-.1580658.286232-.1025276.0384445-.2029305-.0106812-.2371025-.1110687.027771.132431.0576668.2627335.0918503.3930283.027771.1153488-.0341835.243515-.1431122.2926407-.1004028.0448685-.2029305.0021439-.2435188-.0982513.0363121.1303024.0747604.2605972.1132088.3866348.0363197.113205-.0192184.245636-.1238861.2990417-.0982628.0512619-.2029266.0128174-.2477913-.083313.0427246.1281738.0875854.2541962.1345749.3780899.0405846.111084-.0064011.2456589-.1089439.3033218-.0939865.055542-.2007904.0235062-.2520523-.0704803.0491371.1260223.100399.2499161.153801.3695374.0469894.1089401.0085411.2456512-.0897217.3097305-.0918503.0598068-.2007942.0320358-.256321-.0576782.0555267.1217575.115345.2413788.175148.3610001.0534019.1046677.0192299.2413788-.0747566.3118744-.087574.0640793-.1986542.0427094-.2584724-.0427246.0619545.1174774.1281738.2349625.1943932.348175.0576782.1025314.032032.2413788-.0576782.3161392-.0854378.0683517-.1965179.0533981-.2605972-.0299072.0683556.1153564.1388359.2285614.2114716.3396378.0640793.0982666.0469856.2371063-.0405884.3161392-.0811729.0726318-.1922531.0640793-.2606087-.0149536.0747719.1110764.1516685.2200241.2285614.326828.0683594.0939865.0576782.2349625-.0234909.3182678-.0768967.0768967-.1879768.0747604-.2627335-.0021362.0811691.1068039.1644669.2114716.2477798.3140106.0726318.0897141.0704918.23069-.0085411.3182755-.0726318.0811691-.1837006.085434-.2606087.0128098.0854492.1025314.1730232.2029343.2627449.2990494.0768967.0875854.0811729.2285614.0085411.3204117-.0683556.0854492-.1794357.0939865-.2605934.0256424.0918465.0982513.1836967.1922379.2776871.2862244.0833092.083313.0961266.2221527.0277672.3182755-.0640907.0875854-.1751595.1025391-.2584686.0405884.0961266.0918503.1922531.181572.2905045.2691422.0875854.0790405.1068039.2178879.0448608.3182755-.0598145.0918503-.1687431.1132202-.2563324.0534058.1004028.0875854.2029305.1730194.3054581.2541885.0918503.0747757.1174812.2136078.0598183.3161545-.0534019.0939713-.1623459.1217422-.2520561.0662155.1046638.0811615.2114677.1623306.3182716.2392349.0961266.0683594.1302986.2050552.0768967.3118591-.0469856.0982666-.1559296.1303177-.2477798.0811768.1089287.0747681.2200089.1495285.331089.2221603.0982513.0619431.140976.1986542.0939903.3075943-.0427246.1003876-.1473923.1388397-.2456551.0939713.1153564.0704956.2307014.138855.3439064.2029343.1025391.0598145.1516647.1922531.1110802.3033295-.0384483.1046677-.140976.1473923-.2392426.1089325.117485.0640945.2371025.12603.3545837.1858368.1068039.0533981.1623459.1837158.1281738.2969208-.0320473.1068039-.1324348.1559372-.2328377.1217575.1217575.0576782.243515.1132126.3652725.1666183.1068039.0491257.1708832.1772842.1431122.2926407-.025631.1068039-.1238937.1623459-.2264214.1324387.1260338.0533981.2499161.1025238.3759499.1495285.1110802.0427094.1815643.1687393.1602058.2862244-.0192299.1068039-.1153412.1687546-.2178841.1431122.1260338.0470047.2541962.0897217.3823662.1303101.113205.0384521.1922417.1602097.1772881.2776871-.0128174.111084-.1046677.1751633-.2093315.1559296.1302948.0405884.2606049.0768967.3909035.111084.115345.0320282.2007942.1495285.1943779.2691422-.0064011.1110687-.0939865.1815643-.2007904.1687469.1324348.0320511.2670097.0640793.3994446.0918503.1174927.0234985.209343.138855.209343.2584686 0 .113205-.0811729.1879807-.1901131.1794281.1345749.0256271.271286.0491333.4058609.0704956.1196175.0192261.2200089.1302948.2264214.2499161.0085411.1110764-.0683556.1901093-.1751595.1901093.1345749.0192337.2712746.0363159.4058495.0512695.1217575.0128098.2306976.1174927.2456512.2392349.0149536.111084-.0598145.1965332-.1687431.1986694.0790329.0064011.1580658.0128174.2349625.0192184-.1623459.0213538-.3268281.0384437-.4912949.0512611z"/></g></svg>