<svg data-name="Layer 1" xmlns="http://www.w3.org/2000/svg" viewBox="0 0 359.58 292.42"><title>logo</title><path d="M359.51 0L47.79 93.31C20.24 101.3 0 119.44 0 147.24c.06 26.12 18.47 45.78 43.16 53l316.38 92.19z" fill="#de2027"/><path d="M106.92 128.19c-1 4.79-4.48 7.88-13.25 7.88h-9l3.39-15.76H97c9.47 0 11.05 2.78 10 7.87m-3.49 29.3c-1.29 6-5.68 8.67-16.14 8.67h-9L82 148.83h9c10.46 0 13.65 2.69 12.45 8.66M258.12 107c-13.79 0-17.2 9.83-17.2 9.83l-14.8 35.12h-.3L222 107h-23.3c-11.17 0-15.68 10.18-15.68 10.18l-17.73 34.77H165l-.06-44.95h-15.79c-10.46 0-12.74 5.65-13.2 8.86-3-5.8-11.37-8.86-26.24-8.86H72.23C60.1 107 59 116 59 116l-13.68 62.9h53c15.53 0 20.51-1.59 26.1-5.58a21.51 21.51 0 0 0 8.06-13c2.59-12.35-6.18-17.24-16.14-17.84v-.2c9.09-2.09 16.84-6.1 19.72-14.2l1.13 50.76h25.32c14.5 0 19.85-13.2 19.85-13.2l15.51-30.55h.3l3.59 43.75h22.64c16.37 0 21.95-14.2 21.95-14.2l19.9-44.37-12.42 58.57h13.5c17.46 0 19.77-13.93 19.77-13.93l2.72-12.78h19.38c14.93 0 17.07-11.36 17.07-11.36l.8-3.79H293l3.18-14.95h21.43c14.63 0 16.73-10.83 16.73-10.83l.91-4.32z" fill="#fff"/></svg>